<svg xmlns="http://www.w3.org/2000/svg" viewBox="0 0 512 512">
  <!-- Fundo marrom com bordas arredondadas -->
  <rect width="512" height="512" rx="90" ry="90" fill="#6B3A2A"/>

  <!-- Vapor (3 ondas) -->
  <path d="M196 130 Q202 112 196 94 Q190 112 196 130" stroke="#F5ECD7" stroke-width="9" fill="none" stroke-linecap="round"/>
  <path d="M256 124 Q262 104 256 84 Q250 104 256 124" stroke="#F5ECD7" stroke-width="9" fill="none" stroke-linecap="round"/>
  <path d="M316 130 Q322 112 316 94 Q310 112 316 130" stroke="#F5ECD7" stroke-width="9" fill="none" stroke-linecap="round"/>

  <!-- Corpo da xícara -->
  <path d="M152 160 Q148 300 256 312 Q364 300 360 160 Z" fill="#F5ECD7"/>

  <!-- Borda superior da xícara (elipse) -->
  <ellipse cx="256" cy="160" rx="104" ry="18" fill="#e8d8c0"/>

  <!-- Alça -->
  <path d="M360 196 Q416 196 416 240 Q416 284 360 284" stroke="#F5ECD7" stroke-width="22" fill="none" stroke-linecap="round"/>
  <path d="M360 196 Q400 196 400 240 Q400 284 360 284" stroke="#6B3A2A" stroke-width="8" fill="none" stroke-linecap="round"/>

  <!-- Pires -->
  <ellipse cx="256" cy="334" rx="148" ry="22" fill="#e8d8c0"/>
  <ellipse cx="256" cy="332" rx="124" ry="12" fill="#F5ECD7"/>
</svg>
